<?xml version="1.0" encoding="UTF-8"?>
<svg xmlns="http://www.w3.org/2000/svg" version="1.1" xmlns:xlink="http://www.w3.org/1999/xlink" viewBox="0 0 56.05 38.94">
  <!-- Generator: Adobe Illustrator 29.5.1, SVG Export Plug-In . SVG Version: 2.1.0 Build 141)  -->
  <defs>
    <style>
      .st0 {
        fill: url(#Degradado_sin_nombre_6);
      }

      .st1 {
        fill: url(#Degradado_sin_nombre_411);
      }

      .st1, .st2, .st3, .st4 {
        mix-blend-mode: screen;
        opacity: .15;
      }

      .st2 {
        fill: url(#Degradado_sin_nombre_4113);
      }

      .st5 {
        fill: #020202;
        opacity: .37;
      }

      .st6 {
        fill: url(#Degradado_sin_nombre_61);
      }

      .st7 {
        isolation: isolate;
      }

      .st8 {
        fill: url(#Degradado_sin_nombre_32);
      }

      .st9 {
        fill: url(#Degradado_sin_nombre_62);
      }

      .st10 {
        fill: url(#Degradado_sin_nombre_63);
      }

      .st11 {
        fill: url(#Degradado_sin_nombre_3);
      }

      .st3 {
        fill: url(#Degradado_sin_nombre_4111);
      }

      .st4 {
        fill: url(#Degradado_sin_nombre_4112);
      }

      .st12 {
        fill: url(#Degradado_sin_nombre_33);
      }

      .st13 {
        fill: url(#Degradado_sin_nombre_31);
      }
    </style>
    <linearGradient id="Degradado_sin_nombre_3" data-name="Degradado sin nombre 3" x1="29.98" y1="26.29" x2="54.24" y2="26.29" gradientUnits="userSpaceOnUse">
      <stop offset="0" stop-color="#19478f"/>
      <stop offset=".27" stop-color="#135f9b"/>
      <stop offset=".84" stop-color="#049cbc"/>
      <stop offset="1" stop-color="#00afc7"/>
    </linearGradient>
    <linearGradient id="Degradado_sin_nombre_31" data-name="Degradado sin nombre 3" x1="31.71" y1="28.02" y2="28.02" xlink:href="#Degradado_sin_nombre_3"/>
    <linearGradient id="Degradado_sin_nombre_411" data-name="Degradado sin nombre 411" x1="36.39" y1="27.43" x2="36.68" y2="39.49" gradientUnits="userSpaceOnUse">
      <stop offset="0" stop-color="#fff"/>
      <stop offset=".12" stop-color="#e6e6e6"/>
      <stop offset=".38" stop-color="#a8a8a8"/>
      <stop offset=".75" stop-color="#464646"/>
      <stop offset="1" stop-color="#010101"/>
    </linearGradient>
    <linearGradient id="Degradado_sin_nombre_6" data-name="Degradado sin nombre 6" x1="29.98" y1="14.16" x2="54.24" y2="14.16" gradientUnits="userSpaceOnUse">
      <stop offset="0" stop-color="#f89533"/>
      <stop offset=".24" stop-color="#f57c3e"/>
      <stop offset=".75" stop-color="#f03f5b"/>
      <stop offset="1" stop-color="#ed1f6b"/>
    </linearGradient>
    <linearGradient id="Degradado_sin_nombre_61" data-name="Degradado sin nombre 6" x1="32.58" y1="12.86" y2="12.86" xlink:href="#Degradado_sin_nombre_6"/>
    <linearGradient id="Degradado_sin_nombre_4111" data-name="Degradado sin nombre 411" x1="25.25" y1="17.28" x2="49.36" y2="19.74" xlink:href="#Degradado_sin_nombre_411"/>
    <linearGradient id="Degradado_sin_nombre_62" data-name="Degradado sin nombre 6" x1="555.59" y1="630.71" x2="579.85" y2="630.71" gradientTransform="translate(581.33 657) rotate(-180)" xlink:href="#Degradado_sin_nombre_6"/>
    <linearGradient id="Degradado_sin_nombre_63" data-name="Degradado sin nombre 6" x1="558.19" y1="629.41" x2="579.85" y2="629.41" gradientTransform="translate(581.33 657) rotate(-180)" xlink:href="#Degradado_sin_nombre_6"/>
    <linearGradient id="Degradado_sin_nombre_4112" data-name="Degradado sin nombre 411" x1="-9.93" y1="19.05" x2="14.19" y2="21.51" xlink:href="#Degradado_sin_nombre_411"/>
    <linearGradient id="Degradado_sin_nombre_32" data-name="Degradado sin nombre 3" x1="555.59" y1="642.84" x2="579.85" y2="642.84" gradientTransform="translate(581.33 657) rotate(-180)" xlink:href="#Degradado_sin_nombre_3"/>
    <linearGradient id="Degradado_sin_nombre_33" data-name="Degradado sin nombre 3" x1="557.32" y1="644.57" x2="579.85" y2="644.57" gradientTransform="translate(581.33 657) rotate(-180)" xlink:href="#Degradado_sin_nombre_3"/>
    <linearGradient id="Degradado_sin_nombre_4113" data-name="Degradado sin nombre 411" x1="562" y1="643.98" x2="562.29" y2="656.04" gradientTransform="translate(581.33 657) rotate(-180)" xlink:href="#Degradado_sin_nombre_411"/>
  </defs>
  <g class="st7">
    <g id="Layer_1">
      <g>
        <g>
          <g>
            <path class="st11" d="M54.24,20.23c0,3.35-2.71,6.06-6.06,6.06-.96,0-1.87.22-2.68.62-.6.29-1.14.69-1.61,1.16-.09.09-.17.18-.25.27-.17.2-.34.4-.49.62-.06.09-.12.18-.18.28-.07.12-.13.23-.19.35-.06.12-.11.23-.16.34-.01.02-.02.04-.03.06-.05.11-.09.22-.13.33-.04.12-.08.24-.11.36-.08.27-.14.55-.18.84-.04.27-.06.55-.06.83,0,3.35-2.71,6.06-6.06,6.06-1.66,0-3.18-.67-4.27-1.76l-.02-.02c-1.1-1.1-1.77-2.62-1.77-4.29s.68-3.19,1.77-4.29c1.1-1.1,2.62-1.77,4.29-1.77.99,0,1.92-.24,2.74-.66,1.17-.59,2.12-1.55,2.7-2.74.4-.8.62-1.71.62-2.67,0-1.67.68-3.19,1.77-4.29,1.1-1.1,2.62-1.77,4.29-1.77s3.19.68,4.29,1.77c.91.91,1.53,2.11,1.72,3.45.04.28.06.55.06.84Z"/>
            <path class="st13" d="M54.24,20.23c0,3.35-2.71,6.06-6.06,6.06-.96,0-1.87.22-2.68.62-.6.29-1.14.69-1.61,1.16-.09.09-.17.18-.25.27-.17.2-.34.4-.49.62-.06.09-.12.18-.18.28-.07.12-.13.23-.19.35-.06.11-.12.23-.16.34-.01.02-.02.04-.03.06-.05.11-.09.22-.13.33-.05.12-.08.24-.11.36-.08.27-.14.55-.18.84-.04.27-.06.55-.06.83,0,3.35-2.71,6.06-6.06,6.06-1.66,0-3.18-.67-4.27-1.76-.04-.28-.06-.55-.06-.84,0-1.67.68-3.19,1.77-4.29,1.1-1.1,2.62-1.77,4.29-1.77s3.06-.62,4.15-1.64c.71-.66,1.25-1.49,1.58-2.43.22-.62.34-1.3.34-2,0-1.67.68-3.19,1.77-4.29,1.1-1.1,2.62-1.77,4.29-1.77s3.18.67,4.27,1.76c.04.28.06.55.06.84Z"/>
            <path class="st1" d="M42.96,29.24c-.54.91-.85,1.98-.85,3.11,0,3.35-2.71,6.06-6.06,6.06-1.66,0-3.18-.67-4.27-1.76l-.02-.02c-1.1-1.1-1.77-2.62-1.77-4.29s.68-3.19,1.77-4.29c1.1-1.1,2.62-1.77,4.29-1.77.99,0,1.92-.24,2.74-.66,1.43.88,2.86,2.06,4.18,3.61Z"/>
            <path class="st5" d="M54.24,20.23c0,3.35-2.71,6.06-6.06,6.06-.96,0-1.87.22-2.68.62-.73-.3-1.4-.71-1.99-1.22-.88-.75-1.57-1.71-2.02-2.8.4-.8.62-1.71.62-2.67,0-1.67.68-3.19,1.77-4.29,1.1-1.1,2.62-1.77,4.29-1.77s3.19.68,4.29,1.77c.91.91,1.53,2.11,1.72,3.45.04.28.06.55.06.84Z"/>
          </g>
          <g>
            <path class="st0" d="M54.24,20.23c0,1.01-.24,1.95-.68,2.78-1.01,1.95-3.04,3.28-5.38,3.28-1.68,0-3.19-.68-4.29-1.77-1.1-1.1-1.77-2.62-1.77-4.29s-.68-3.19-1.77-4.29c-.87-.87-2-1.48-3.27-1.69-.33-.06-.67-.09-1.02-.09-1.68,0-3.19-.68-4.29-1.77-1.1-1.1-1.77-2.62-1.77-4.29s.68-3.19,1.77-4.29c.44-.44.95-.81,1.5-1.1.84-.43,1.78-.68,2.79-.68,1.67,0,3.19.68,4.29,1.77,1.1,1.1,1.77,2.62,1.77,4.29s.68,3.19,1.77,4.29l.1.1c1.09,1.04,2.57,1.67,4.19,1.67s3.19.68,4.29,1.77c1.1,1.1,1.77,2.62,1.77,4.29Z"/>
            <path class="st6" d="M54.24,20.23c0,1.01-.24,1.95-.68,2.78-.83.44-1.78.68-2.78.68-1.68,0-3.19-.68-4.29-1.77-1.1-1.1-1.77-2.62-1.77-4.29s-.68-3.19-1.77-4.29-2.62-1.77-4.29-1.77-3.19-.68-4.29-1.77-1.77-2.62-1.77-4.29c0-1.01.24-1.95.68-2.79.84-.43,1.78-.68,2.79-.68,1.67,0,3.19.68,4.29,1.77,1.1,1.1,1.77,2.62,1.77,4.29s.68,3.19,1.77,4.29c1.1,1.1,2.62,1.77,4.29,1.77s3.19.68,4.29,1.77c1.1,1.1,1.77,2.62,1.77,4.29Z"/>
            <path class="st3" d="M54.24,20.23c0,1.01-.24,1.95-.68,2.78-1.01,1.95-3.04,3.28-5.38,3.28-1.68,0-3.19-.68-4.29-1.77-1.1-1.1-1.77-2.62-1.77-4.29s-.68-3.19-1.77-4.29c-.87-.87-2-1.48-3.27-1.69,2.14-.96,4.47-1.57,6.92-1.76,1.09,1.04,2.57,1.67,4.19,1.67s3.19.68,4.29,1.77c1.1,1.1,1.77,2.62,1.77,4.29Z"/>
          </g>
        </g>
        <g>
          <g>
            <path class="st9" d="M1.48,20.23c0-1,.24-1.95.68-2.78,1.01-1.95,3.04-3.28,5.38-3.28,1.68,0,3.19.68,4.29,1.77,1.1,1.1,1.77,2.62,1.77,4.29s.68,3.19,1.77,4.29c.87.87,2,1.48,3.27,1.69.33.06.67.09,1.02.09,1.68,0,3.19.68,4.29,1.77,1.1,1.1,1.77,2.62,1.77,4.29s-.68,3.19-1.77,4.29c-.44.44-.95.81-1.5,1.1-.84.43-1.78.68-2.79.68-1.67,0-3.19-.68-4.29-1.77-1.1-1.1-1.77-2.62-1.77-4.29s-.68-3.19-1.77-4.29l-.1-.1c-1.09-1.04-2.57-1.67-4.19-1.67s-3.19-.68-4.29-1.77c-1.1-1.1-1.77-2.62-1.77-4.29Z"/>
            <path class="st10" d="M1.48,20.23c0-1,.24-1.95.68-2.78.83-.44,1.78-.68,2.78-.68,1.67,0,3.19.68,4.29,1.77,1.1,1.1,1.77,2.62,1.77,4.29s.68,3.19,1.77,4.29,2.62,1.77,4.29,1.77,3.19.68,4.29,1.77,1.77,2.62,1.77,4.29c0,1.01-.24,1.95-.68,2.79-.84.43-1.78.68-2.79.68-1.67,0-3.19-.68-4.29-1.77-1.1-1.1-1.77-2.62-1.77-4.29s-.68-3.19-1.77-4.29c-1.1-1.1-2.62-1.77-4.29-1.77s-3.19-.68-4.29-1.77c-1.1-1.1-1.77-2.62-1.77-4.29Z"/>
            <path class="st4" d="M18.66,26.2c-2.14.96-4.47,1.57-6.92,1.76-.36-.34-.76-.64-1.2-.88-.88-.51-1.91-.79-2.99-.79-1.67,0-3.19-.68-4.29-1.77s-1.77-2.62-1.77-4.29c0-1,.24-1.95.68-2.78,1.01-1.95,3.04-3.28,5.38-3.28,1.68,0,3.19.68,4.29,1.77,1.1,1.1,1.77,2.62,1.77,4.29,0,1.11.29,2.15.81,3.05.27.46.59.87.96,1.24.87.87,2,1.48,3.27,1.69Z"/>
            <path class="st5" d="M14.43,23.28c-.76,1.72-2.15,3.08-3.89,3.81-.88-.51-1.91-.79-2.99-.79-1.67,0-3.19-.68-4.29-1.77s-1.77-2.62-1.77-4.29c0-1,.24-1.95.68-2.78,1.01-1.95,3.04-3.28,5.38-3.28,1.68,0,3.19.68,4.29,1.77,1.1,1.1,1.77,2.62,1.77,4.29,0,1.11.29,2.15.81,3.05Z"/>
          </g>
          <g>
            <path class="st8" d="M1.48,20.23c0-3.35,2.71-6.06,6.06-6.06.96,0,1.87-.22,2.68-.62.6-.29,1.14-.69,1.61-1.16.09-.09.17-.18.25-.27.17-.2.34-.4.49-.62.06-.09.12-.18.18-.28.07-.12.13-.23.19-.35.06-.12.11-.23.16-.34.01-.02.02-.04.03-.06.05-.11.09-.22.13-.33.04-.12.08-.24.11-.36.08-.27.14-.55.18-.84.04-.27.06-.55.06-.83,0-3.35,2.71-6.06,6.06-6.06,1.66,0,3.18.67,4.27,1.76l.02.02c1.1,1.1,1.77,2.62,1.77,4.29s-.68,3.19-1.77,4.29c-1.1,1.1-2.62,1.77-4.29,1.77-.99,0-1.92.24-2.74.66-1.17.59-2.12,1.55-2.7,2.74-.4.8-.62,1.71-.62,2.67,0,1.68-.68,3.19-1.77,4.29-1.1,1.1-2.62,1.77-4.29,1.77s-3.19-.68-4.29-1.77c-.91-.91-1.53-2.11-1.72-3.45-.04-.28-.06-.55-.06-.84Z"/>
            <path class="st12" d="M1.48,20.23c0-3.35,2.71-6.06,6.06-6.06.96,0,1.87-.22,2.68-.62.6-.29,1.14-.69,1.61-1.16.09-.09.17-.18.25-.27.17-.2.34-.4.49-.62.06-.09.12-.18.18-.28.07-.12.13-.23.19-.35.06-.11.12-.23.16-.34.01-.02.02-.04.03-.06.05-.11.09-.22.13-.33.05-.12.08-.24.11-.36.08-.27.14-.55.18-.84.04-.27.06-.55.06-.83,0-3.35,2.71-6.06,6.06-6.06,1.66,0,3.18.67,4.27,1.76.04.28.06.55.06.84,0,1.67-.68,3.19-1.77,4.29-1.1,1.1-2.62,1.77-4.29,1.77s-3.06.62-4.15,1.64c-.71.66-1.25,1.49-1.58,2.43-.22.62-.34,1.3-.34,2,0,1.67-.68,3.19-1.77,4.29-1.1,1.1-2.62,1.77-4.29,1.77s-3.18-.67-4.27-1.76c-.04-.28-.06-.55-.06-.84Z"/>
            <path class="st2" d="M12.76,11.21c.54-.91.85-1.98.85-3.11,0-3.35,2.71-6.06,6.06-6.06,1.66,0,3.18.67,4.27,1.76l.02.02c1.1,1.1,1.77,2.62,1.77,4.29s-.68,3.19-1.77,4.29c-1.1,1.1-2.62,1.77-4.29,1.77-.99,0-1.92.24-2.74.66-1.43-.88-2.86-2.06-4.18-3.61Z"/>
          </g>
        </g>
      </g>
    </g>
  </g>
</svg>